<svg width="300" height="160" viewBox="0 0 400 160" xmlns="http://www.w3.org/2000/svg">
  <!-- Icône -->
  <rect x="10" y="10" width="100" height="100" rx="4" fill="#2D5443"/>
  <polygon points="30,102 36,68 100,68 108,78 108,102" fill="#EDD9BE"/>
  <polygon points="30,102 36,68 30,68" fill="#A6706A"/>
  <rect x="30" y="93" width="78" height="5" rx="0" fill="#A6706A"/>
  <rect x="44" y="72" width="10" height="7" rx="0" fill="#2D5443"/>
  <rect x="58" y="72" width="10" height="7" rx="0" fill="#2D5443"/>
  <rect x="72" y="72" width="10" height="7" rx="0" fill="#2D5443"/>
  <rect x="36" y="102" width="12" height="5" rx="0" fill="#8B9E6A"/>
  <rect x="58" y="102" width="12" height="5" rx="0" fill="#8B9E6A"/>
  <rect x="80" y="102" width="12" height="5" rx="0" fill="#8B9E6A"/>
  <rect x="28" y="107" width="84" height="2.5" rx="0" fill="#8B9E6A"/>
  <!-- Texte -->
  <text x="128" y="76" font-size="50" font-weight="500" fill="#2D5443" font-family="'Helvetica Neue', Helvetica, Arial, sans-serif" letter-spacing="-1.5">Rail<tspan fill="#A6706A">go</tspan></text>
  <text x="130" y="100" font-size="16" fill="#8B9E6A" font-family="'Helvetica Neue', Helvetica, Arial, sans-serif" letter-spacing="3.5">MOBILITÉ VERTE</text>
</svg>
